<svg width="72" height="75" viewBox="0 0 72 75" fill="none" xmlns="http://www.w3.org/2000/svg">
<path d="M70.1443 46.1131L63.7697 42.4252C64.4132 38.9473 64.4132 35.3794 63.7697 31.9014L70.1443 28.2136C70.8776 27.7938 71.2068 26.9243 70.9674 26.1148C69.3064 20.7779 66.4782 15.9508 62.7821 11.9331C62.2135 11.3185 61.2857 11.1686 60.5674 11.5883L54.1928 15.2762C51.5142 12.9675 48.4317 11.1836 45.0947 10.0143V2.65358C45.0947 1.81407 44.5111 1.07951 43.6881 0.899612C38.1964 -0.329666 32.5699 -0.269701 27.3475 0.899612C26.5245 1.07951 25.9409 1.81407 25.9409 2.65358V10.0293C22.6189 11.2136 19.5363 12.9975 16.8428 15.2912L10.4831 11.6033C9.74992 11.1836 8.83712 11.3185 8.26849 11.9481C4.5724 15.9508 1.74421 20.7779 0.0832173 26.1298C-0.17117 26.9393 0.173001 27.8088 0.906234 28.2286L7.28087 31.9164C6.63742 35.3944 6.63742 38.9623 7.28087 42.4402L0.906234 46.128C0.173001 46.5478 -0.156206 47.4173 0.0832173 48.2268C1.74421 53.5637 4.5724 58.3908 8.26849 62.4085C8.83712 63.0231 9.76488 63.173 10.4831 62.7533L16.8578 59.0655C19.5363 61.3741 22.6189 63.1581 25.9559 64.3274V71.703C25.9559 72.5425 26.5394 73.2771 27.3625 73.457C32.8542 74.6863 38.4807 74.6263 43.7031 73.457C44.5261 73.2771 45.1097 72.5425 45.1097 71.703V64.3274C48.4317 63.1431 51.5143 61.3591 54.2078 59.0655L60.5824 62.7533C61.3156 63.173 62.2284 63.0381 62.7971 62.4085C66.4931 58.4058 69.3213 53.5787 70.9823 48.2268C71.2068 47.4023 70.8776 46.5328 70.1443 46.1131ZM35.5178 49.1563C28.9187 49.1563 23.5467 43.7744 23.5467 37.1633C23.5467 30.5522 28.9187 25.1704 35.5178 25.1704C42.1169 25.1704 47.489 30.5522 47.489 37.1633C47.489 43.7744 42.1169 49.1563 35.5178 49.1563Z" fill="#FE725D"/>
</svg>
