<svg width="20" height="21" viewBox="0 0 20 21" fill="none" xmlns="http://www.w3.org/2000/svg">
<path d="M19.4296 14.8109L15.0546 12.9359C14.8677 12.8562 14.6599 12.8395 14.4627 12.8881C14.2654 12.9367 14.0893 13.0481 13.9608 13.2054L12.0233 15.5727C8.98248 14.139 6.53535 11.6918 5.10165 8.65105L7.46888 6.71352C7.62657 6.58527 7.73818 6.40913 7.78681 6.21177C7.83545 6.01442 7.81846 5.80659 7.73842 5.61975L5.86338 1.24468C5.77554 1.04327 5.62016 0.878827 5.42406 0.779706C5.22796 0.680584 5.00341 0.652995 4.78915 0.701697L0.726575 1.63921C0.519997 1.68692 0.335688 1.80323 0.203728 1.96917C0.0717689 2.13512 -4.75872e-05 2.34089 2.36575e-08 2.5529C2.36575e-08 12.5726 8.12123 20.6782 18.1253 20.6782C18.3374 20.6784 18.5433 20.6066 18.7093 20.4746C18.8753 20.3426 18.9917 20.1583 19.0394 19.9516L19.9769 15.8891C20.0253 15.6738 19.9971 15.4483 19.8972 15.2515C19.7973 15.0548 19.632 14.899 19.4296 14.8109Z" fill="#2E2E2E"/>
</svg>
