<svg width="20" height="24" viewBox="0 0 20 24" fill="none" xmlns="http://www.w3.org/2000/svg">
<path d="M0.535714 9.39272H19.4643C19.7589 9.39272 20 9.63379 20 9.92843V21.5356C20 22.7186 19.0402 23.6784 17.8571 23.6784H2.14286C0.959821 23.6784 0 22.7186 0 21.5356V9.92843C0 9.63379 0.241071 9.39272 0.535714 9.39272ZM20 7.42843V5.82129C20 4.63825 19.0402 3.67843 17.8571 3.67843H15.7143V1.357C15.7143 1.06236 15.4732 0.821289 15.1786 0.821289H13.3929C13.0982 0.821289 12.8571 1.06236 12.8571 1.357V3.67843H7.14286V1.357C7.14286 1.06236 6.90179 0.821289 6.60714 0.821289H4.82143C4.52679 0.821289 4.28571 1.06236 4.28571 1.357V3.67843H2.14286C0.959821 3.67843 0 4.63825 0 5.82129V7.42843C0 7.72307 0.241071 7.96415 0.535714 7.96415H19.4643C19.7589 7.96415 20 7.72307 20 7.42843Z" fill="#2E2E2E"/>
</svg>
