<svg width="20" height="16" viewBox="0 0 20 16" fill="none" xmlns="http://www.w3.org/2000/svg">
<path d="M19.6211 5.41553C19.7734 5.29443 20 5.40771 20 5.59912V13.5874C20 14.6226 19.1602 15.4624 18.125 15.4624H1.875C0.839844 15.4624 0 14.6226 0 13.5874V5.60303C0 5.40771 0.222656 5.29834 0.378906 5.41943C1.25391 6.09912 2.41406 6.9624 6.39844 9.85693C7.22266 10.4585 8.61328 11.7241 10 11.7163C11.3945 11.728 12.8125 10.4351 13.6055 9.85693C17.5898 6.9624 18.7461 6.09521 19.6211 5.41553ZM10 10.4624C10.9062 10.478 12.2109 9.32178 12.8672 8.84521C18.0508 5.0835 18.4453 4.75537 19.6406 3.81787C19.8672 3.64209 20 3.36865 20 3.07959V2.3374C20 1.30225 19.1602 0.462402 18.125 0.462402H1.875C0.839844 0.462402 0 1.30225 0 2.3374V3.07959C0 3.36865 0.132812 3.63818 0.359375 3.81787C1.55469 4.75146 1.94922 5.0835 7.13281 8.84521C7.78906 9.32178 9.09375 10.478 10 10.4624Z" fill="#2E2E2E"/>
</svg>
