<svg width="15" height="18" viewBox="0 0 15 18" fill="none" xmlns="http://www.w3.org/2000/svg">
<path d="M3.21429 17.4375L3.21429 5.625H3.75C4.04464 5.625 4.28572 5.37187 4.28572 5.0625V3.9375C4.28572 3.62812 4.04464 3.375 3.75 3.375H3.21429V0.5625C3.21429 0.253125 2.97322 0 2.67857 0L1.60714 0C1.3125 0 1.07143 0.253125 1.07143 0.5625V3.375H0.535715C0.241072 3.375 0 3.62812 0 3.9375V5.0625C0 5.37187 0.241072 5.625 0.535715 5.625H1.07143L1.07143 17.4375C1.07143 17.7469 1.3125 18 1.60714 18H2.67857C2.97322 18 3.21429 17.7469 3.21429 17.4375ZM8.57143 17.4375V14.625H9.10714C9.40179 14.625 9.64286 14.3719 9.64286 14.0625V12.9375C9.64286 12.6281 9.40179 12.375 9.10714 12.375H8.57143V0.5625C8.57143 0.253125 8.33036 0 8.03571 0L6.96429 0C6.66964 0 6.42857 0.253125 6.42857 0.5625V12.375H5.89286C5.59821 12.375 5.35714 12.6281 5.35714 12.9375V14.0625C5.35714 14.3719 5.59821 14.625 5.89286 14.625H6.42857V17.4375C6.42857 17.7469 6.66964 18 6.96429 18H8.03571C8.33036 18 8.57143 17.7469 8.57143 17.4375ZM13.9286 17.4375L13.9286 10.125H14.4643C14.7589 10.125 15 9.87187 15 9.5625V8.4375C15 8.12813 14.7589 7.875 14.4643 7.875H13.9286V0.5625C13.9286 0.253125 13.6875 0 13.3929 0L12.3214 0C12.0268 0 11.7857 0.253125 11.7857 0.5625V7.875H11.25C10.9554 7.875 10.7143 8.12813 10.7143 8.4375V9.5625C10.7143 9.87187 10.9554 10.125 11.25 10.125H11.7857V17.4375C11.7857 17.7469 12.0268 18 12.3214 18H13.3929C13.6875 18 13.9286 17.7469 13.9286 17.4375Z" fill="white"/>
</svg>
