<svg width="262" height="153" viewBox="0 0 262 153" fill="none" xmlns="http://www.w3.org/2000/svg">
<path d="M76.709 38.5292L81.6294 29.9538C83.4295 26.7755 87.2699 25.4563 90.6902 26.7156C97.7707 29.3542 104.251 33.1321 109.952 37.8696C112.712 40.1483 113.432 44.1662 111.632 47.2845L106.711 55.8598C110.852 60.6573 114.092 66.2343 116.252 72.291H126.153C129.753 72.291 132.874 74.8696 133.474 78.4677C134.674 85.6638 134.734 93.2197 133.474 100.716C132.874 104.314 129.753 106.952 126.153 106.952H116.252C114.092 113.009 110.852 118.586 106.711 123.383L111.632 131.959C113.432 135.077 112.772 139.095 109.952 141.374C104.251 146.111 97.7107 149.889 90.6902 152.528C87.2699 153.787 83.4295 152.468 81.6294 149.289L76.709 140.714C70.4085 141.853 63.9879 141.853 57.6874 140.714L52.767 149.289C50.9669 152.468 47.1266 153.787 43.7063 152.528C36.6257 149.889 30.1451 146.111 24.4447 141.374C21.6844 139.095 20.9644 135.077 22.7645 131.959L27.6849 123.383C23.5446 118.586 20.3043 113.009 18.1441 106.952H8.24332C4.64304 106.952 1.52277 104.374 0.922699 100.776C-0.277405 93.5795 -0.337402 86.0236 0.922699 78.5276C1.52277 74.9296 4.64304 72.291 8.24332 72.291H18.1441C20.3043 66.2343 23.5446 60.6573 27.6849 55.8598L22.7645 47.2845C20.9644 44.1662 21.6244 40.1483 24.4447 37.8696C30.1451 33.1321 36.6857 29.3542 43.7063 26.7156C47.1266 25.4563 50.9669 26.7755 52.767 29.9538L57.6874 38.5292C63.9279 37.3898 70.4085 37.3898 76.709 38.5292ZM83.0095 73.7902C59.9076 56.0398 33.5654 82.3655 51.3269 105.453C74.4288 123.263 100.771 96.8777 83.0095 73.7902ZM152.195 -18.5L131.974 -28.5746C125.913 -32.0527 123.273 -39.4287 125.673 -46.0251C131.013 -60.5373 141.514 -73.8501 151.235 -85.4839C155.676 -90.821 163.356 -92.1403 169.417 -88.6621L186.878 -78.5876C196.479 -86.8031 207.64 -93.3396 219.821 -97.5973V-117.746C219.821 -124.703 224.801 -130.699 231.642 -131.899C246.403 -134.417 261.884 -134.537 277.186 -131.899C284.086 -130.699 289.187 -124.763 289.187 -117.746V-97.5973C301.368 -93.2796 312.528 -86.8031 322.129 -78.5876L339.591 -88.6022C345.591 -92.0803 353.332 -90.761 357.772 -85.4239C367.493 -73.7902 377.754 -60.4774 383.094 -46.0251C385.494 -39.4887 382.854 -32.1127 376.794 -28.5746L356.812 -18.5C359.152 -5.96678 359.152 6.92627 356.812 19.5195L376.794 29.654C382.854 33.1321 385.554 40.5081 383.094 47.0446C377.754 61.5568 367.493 74.8696 357.772 86.5033C353.332 91.8404 345.651 93.1597 339.591 89.6816L322.129 79.607C312.528 87.8226 301.368 94.3591 289.187 98.6168V118.826C289.187 125.722 284.266 131.719 277.426 132.918C262.664 135.437 247.123 135.557 231.822 132.978C224.921 131.779 219.821 125.842 219.821 118.826V98.6767C207.64 94.3591 196.479 87.8826 186.878 79.667L169.417 89.7416C163.416 93.2197 155.676 91.9004 151.235 86.5633C141.514 74.9296 131.313 61.6167 125.973 47.1046C123.573 40.5681 125.913 33.1921 131.974 29.654L152.195 19.5794C149.855 6.98622 149.855 -5.90681 152.195 -18.5ZM222.761 -31.1532C187.238 15.0219 239.982 67.7334 286.186 32.2326C321.709 -13.9425 268.965 -66.654 222.761 -31.1532ZM76.709 -140.714L81.6294 -149.289C83.4295 -152.468 87.2699 -153.787 90.6902 -152.528C97.7707 -149.889 104.251 -146.111 109.952 -141.374C112.712 -139.095 113.432 -135.077 111.632 -131.959L106.711 -123.383C110.852 -118.586 114.092 -113.009 116.252 -106.952H126.153C129.753 -106.952 132.874 -104.374 133.474 -100.776C134.674 -93.5795 134.734 -86.0236 133.474 -78.5276C132.874 -74.9296 129.753 -72.291 126.153 -72.291H116.252C114.092 -66.2342 110.852 -60.6573 106.711 -55.8598L111.632 -47.2845C113.432 -44.1662 112.772 -40.1483 109.952 -37.8696C104.251 -33.1321 97.7107 -29.3541 90.6902 -26.7156C87.2699 -25.4563 83.4295 -26.7755 81.6294 -29.9538L76.709 -38.5292C70.4085 -37.3898 63.9879 -37.3898 57.6874 -38.5292L52.767 -29.9538C50.9669 -26.7755 47.1266 -25.4563 43.7063 -26.7156C36.6257 -29.3541 30.1451 -33.1321 24.4447 -37.8696C21.6844 -40.1483 20.9644 -44.1662 22.7645 -47.2845L27.6849 -55.8598C23.5446 -60.6573 20.3043 -66.2342 18.1441 -72.291H8.24332C4.64304 -72.291 1.52277 -74.8696 0.922699 -78.4677C-0.277405 -85.6638 -0.337402 -93.2197 0.922699 -100.716C1.52277 -104.314 4.64304 -106.952 8.24332 -106.952H18.1441C20.3043 -113.009 23.5446 -118.586 27.6849 -123.383L22.7645 -131.959C20.9644 -135.077 21.6244 -139.095 24.4447 -141.374C30.1451 -146.111 36.6857 -149.889 43.7063 -152.528C47.1266 -153.787 50.9669 -152.468 52.767 -149.289L57.6874 -140.714C63.9279 -141.853 70.4085 -141.853 76.709 -140.714ZM83.0095 -105.393C59.9076 -123.144 33.5654 -96.8177 51.3269 -73.7302C74.4288 -55.9798 100.771 -82.3056 83.0095 -105.393Z" fill="white" fill-opacity="0.8"/>
</svg>
