<svg width="250" height="180" viewBox="0 0 250 180" fill="none" xmlns="http://www.w3.org/2000/svg">
<path d="M175.888 110.73L171.134 119.025C169.395 122.099 165.685 123.376 162.38 122.157C155.539 119.605 149.278 115.951 143.771 111.368C141.104 109.164 140.408 105.277 142.147 102.261L146.901 93.9656C142.901 89.325 139.77 83.9303 137.683 78.0715H128.118C124.639 78.0715 121.625 75.5771 121.045 72.0966C119.886 65.1357 119.828 57.8267 121.045 50.5757C121.625 47.0952 124.639 44.5429 128.118 44.5429H137.683C139.77 38.6841 142.901 33.2894 146.901 28.6487L142.147 20.3536C140.408 17.3372 141.046 13.4507 143.771 11.2464C149.278 6.66373 155.597 3.00923 162.38 0.45688C165.685 -0.761286 169.395 0.514888 171.134 3.58931L175.888 11.8844C181.975 10.7823 188.178 10.7823 194.266 11.8844L199.019 3.58931C200.759 0.514888 204.469 -0.761286 207.773 0.45688C214.614 3.00923 220.875 6.66373 226.383 11.2464C229.05 13.4507 229.745 17.3372 228.006 20.3536L223.252 28.6487C227.253 33.2894 230.383 38.6841 232.47 44.5429H242.036C245.514 44.5429 248.529 47.0372 249.109 50.5177C250.268 57.4787 250.326 64.7877 249.109 72.0386C248.529 75.5191 245.514 78.0715 242.036 78.0715H232.47C230.383 83.9303 227.253 89.325 223.252 93.9656L228.006 102.261C229.745 105.277 229.108 109.164 226.383 111.368C220.875 115.951 214.556 119.605 207.773 122.157C204.469 123.376 200.759 122.099 199.019 119.025L194.266 110.73C188.236 111.832 181.975 111.832 175.888 110.73ZM169.801 76.6213C192.121 93.7916 217.571 68.3261 200.411 45.9931C178.091 28.7647 152.641 54.2882 169.801 76.6213ZM102.957 165.895L122.494 175.641C128.35 179.005 130.9 186.14 128.582 192.521C123.422 206.559 113.277 219.437 103.885 230.69C99.5948 235.853 92.1742 237.129 86.3188 233.765L69.4485 224.019C60.1728 231.966 49.3897 238.289 37.6211 242.408V261.899C37.6211 268.627 32.8092 274.428 26.2003 275.588C11.9388 278.025 -3.01841 278.141 -17.8017 275.588C-24.4686 274.428 -29.3964 268.685 -29.3964 261.899V242.408C-41.165 238.231 -51.9481 231.966 -61.2238 224.019L-78.0941 233.707C-83.8915 237.071 -91.3701 235.795 -95.6601 230.632C-105.052 219.379 -114.965 206.501 -120.125 192.521C-122.444 186.198 -119.893 179.063 -114.038 175.641L-94.7325 165.895C-96.9935 153.772 -96.9935 141.3 -94.7325 129.118L-114.038 119.315C-119.893 115.951 -122.502 108.816 -120.125 102.493C-114.965 88.4549 -105.052 75.5771 -95.6601 64.3236C-91.3701 59.1609 -83.9495 57.8847 -78.0941 61.2492L-61.2238 70.9945C-51.9481 63.0474 -41.165 56.7246 -29.3964 52.606V33.0573C-29.3964 26.3864 -24.6425 20.5856 -18.0335 19.4255C-3.77206 16.9891 11.2431 16.8731 26.0263 19.3675C32.6933 20.5276 37.6211 26.2704 37.6211 33.0573V52.548C49.3897 56.7245 60.1728 62.9894 69.4485 70.9365L86.3188 61.1912C92.1162 57.8267 99.5948 59.1029 103.885 64.2656C113.277 75.5191 123.132 88.3969 128.292 102.435C130.611 108.758 128.35 115.893 122.494 119.315L102.957 129.06C105.218 141.242 105.218 153.714 102.957 165.895ZM34.7804 178.135C69.1007 133.469 18.1419 82.4801 -26.4977 116.821C-60.818 161.487 -9.85927 212.476 34.7804 178.135ZM175.888 284.116L171.134 292.411C169.395 295.485 165.685 296.761 162.38 295.543C155.539 292.991 149.278 289.336 143.771 284.754C141.104 282.549 140.408 278.663 142.147 275.646L146.901 267.351C142.901 262.711 139.77 257.316 137.683 251.457H128.118C124.639 251.457 121.625 248.963 121.045 245.482C119.886 238.521 119.828 231.212 121.045 223.961C121.625 220.481 124.639 217.929 128.118 217.929H137.683C139.77 212.07 142.901 206.675 146.901 202.034L142.147 193.739C140.408 190.723 141.046 186.836 143.771 184.632C149.278 180.049 155.597 176.395 162.38 173.842C165.685 172.624 169.395 173.901 171.134 176.975L175.888 185.27C181.975 184.168 188.178 184.168 194.266 185.27L199.019 176.975C200.759 173.901 204.469 172.624 207.773 173.842C214.614 176.395 220.875 180.049 226.383 184.632C229.05 186.836 229.745 190.723 228.006 193.739L223.252 202.034C227.253 206.675 230.383 212.07 232.47 217.929H242.036C245.514 217.929 248.529 220.423 249.109 223.903C250.268 230.864 250.326 238.173 249.109 245.424C248.529 248.905 245.514 251.457 242.036 251.457H232.47C230.383 257.316 227.253 262.711 223.252 267.351L228.006 275.646C229.745 278.663 229.108 282.549 226.383 284.754C220.875 289.336 214.556 292.991 207.773 295.543C204.469 296.761 200.759 295.485 199.019 292.411L194.266 284.116C188.236 285.218 181.975 285.218 175.888 284.116ZM169.801 249.949C192.121 267.119 217.571 241.654 200.411 219.321C178.091 202.15 152.641 227.616 169.801 249.949Z" fill="white" fill-opacity="0.8"/>
</svg>
