<svg width="15" height="26" viewBox="0 0 15 26" fill="none" xmlns="http://www.w3.org/2000/svg">
<path d="M5.46875 15.7197V23.3706L6.54395 24.9829C6.77588 25.3306 7.28711 25.3306 7.51904 24.9829L8.59375 23.3706V15.7197C8.08643 15.8135 7.56543 15.8691 7.03125 15.8691C6.49707 15.8691 5.97607 15.8135 5.46875 15.7197ZM7.03125 0.244141C3.14795 0.244141 0 3.39209 0 7.27539C0 11.1587 3.14795 14.3066 7.03125 14.3066C10.9146 14.3066 14.0625 11.1587 14.0625 7.27539C14.0625 3.39209 10.9146 0.244141 7.03125 0.244141ZM7.03125 3.95508C5.2002 3.95508 3.71094 5.44434 3.71094 7.27539C3.71094 7.59863 3.44824 7.86133 3.125 7.86133C2.80176 7.86133 2.53906 7.59863 2.53906 7.27539C2.53906 4.79834 4.55469 2.7832 7.03125 2.7832C7.35449 2.7832 7.61719 3.0459 7.61719 3.36914C7.61719 3.69238 7.35449 3.95508 7.03125 3.95508Z" fill="#2E2E2E"/>
</svg>
