<svg width="25" height="18" viewBox="0 0 25 18" fill="none" xmlns="http://www.w3.org/2000/svg">
<path d="M7.5 9.07129C9.91797 9.07129 11.875 7.11426 11.875 4.69629C11.875 2.27832 9.91797 0.321289 7.5 0.321289C5.08203 0.321289 3.125 2.27832 3.125 4.69629C3.125 7.11426 5.08203 9.07129 7.5 9.07129ZM10.5 10.3213H10.1758C9.36328 10.7119 8.46094 10.9463 7.5 10.9463C6.53906 10.9463 5.64062 10.7119 4.82422 10.3213H4.5C2.01562 10.3213 0 12.3369 0 14.8213V15.9463C0 16.9814 0.839844 17.8213 1.875 17.8213H13.125C14.1602 17.8213 15 16.9814 15 15.9463V14.8213C15 12.3369 12.9844 10.3213 10.5 10.3213ZM18.75 9.07129C20.8203 9.07129 22.5 7.3916 22.5 5.32129C22.5 3.25098 20.8203 1.57129 18.75 1.57129C16.6797 1.57129 15 3.25098 15 5.32129C15 7.3916 16.6797 9.07129 18.75 9.07129ZM20.625 10.3213H20.4766C19.9336 10.5088 19.3594 10.6338 18.75 10.6338C18.1406 10.6338 17.5664 10.5088 17.0234 10.3213H16.875C16.0781 10.3213 15.3438 10.5518 14.6992 10.9229C15.6523 11.9502 16.25 13.3135 16.25 14.8213V16.3213C16.25 16.4072 16.2305 16.4893 16.2266 16.5713H23.125C24.1602 16.5713 25 15.7314 25 14.6963C25 12.2783 23.043 10.3213 20.625 10.3213Z" fill="#2E2E2E"/>
</svg>
