<svg width="21" height="21" viewBox="0 0 21 21" fill="none" xmlns="http://www.w3.org/2000/svg">
<path d="M10.11 0.243652C4.52504 0.243652 0 4.76846 0 10.3531C0 15.9378 4.52504 20.4626 10.11 20.4626C15.695 20.4626 20.22 15.9378 20.22 10.3531C20.22 4.76846 15.695 0.243652 10.11 0.243652ZM12.4377 14.5151L8.84217 11.9022C8.7158 11.8084 8.64242 11.6617 8.64242 11.5068V4.64617C8.64242 4.37712 8.86256 4.157 9.13161 4.157H11.0884C11.3574 4.157 11.5776 4.37712 11.5776 4.64617V10.2594L14.1662 12.1427C14.3864 12.3017 14.4312 12.6074 14.2722 12.8275L13.1226 14.4092C12.9636 14.6252 12.6579 14.6741 12.4377 14.5151Z" fill="#2E2E2E"/>
</svg>
